<svg data-noselect="" viewBox="1.5980643248099113 29.9664026215695 740.9205594005554 555.6904195504166" width="800"
  height="600" preserveAspectRatio="none" version="1.1" xmlns="http://www.w3.org/2000/svg"
  xmlns:xlink="http://www.w3.org/1999/xlink" data-v-5bd6ae12="">
  <defs data-v-5bd6ae12=""></defs>
  <g id="background" data-noselect="" data-v-5bd6ae12="">
    <rect fill="#ffffff" x="1.5980643248099113" y="29.9664026215695" width="740.9205594005554"
      height="555.6904195504166" data-noselect=""></rect>
    <!---->
  </g>
  <g id="shape_kBxXtn6MYH" data-v-5bd6ae12="" style="">
    <!---->
    <g mask="" data-v-5bd6ae12="" style="opacity: 1; transform: scale(1); transform-origin: 214.538px 284.994px;">
      <g transform="translate(112.73614823489322,183.19252457929443) rotate(0,98.16983751755637,98.16983751755645) scale(1,1)"
        filter="" data-v-5bd6ae12="" style="opacity: 1;">
        <g data-v-5bd6ae12=""><svg version="1.1" id="图层_1" xmlns="http://www.w3.org/2000/svg"
            xmlns:xlink="http://www.w3.org/1999/xlink" x="0px" y="0px" viewBox="0 0 229.4 229.4"
            style="enable-background:new 0 0 229.4 229.4;" xml:space="preserve" width="196.33967503511275"
            height="196.3396750351129" class="style-removed" preserveAspectRatio="none" data-parent="shape_kBxXtn6MYH">

            <g>
              <path d="M16,0C7.2,0,0,7.2,0,16v41L102.6,0H16z" fill="#9e65ff" stroke-width="0"></path>
              <polygon points="126.6,0 0,70.4 0,78.5 141.1,0 	" fill="#9e65ff" stroke-width="0"></polygon>
              <polygon points="165.1,0 0,91.8 0,99.3 178.6,0 	" fill="#9e65ff" stroke-width="0"></polygon>
              <path d="M213.4,0h-10.8L0,112.7v100.7c0,8.9,7.2,16,16,16h47.4V95.7l83.5-41l82.5,41.9V16C229.4,7.2,222.3,0,213.4,0z
		" fill="#9e65ff" stroke-width="0"></path>
            </g>
          </svg></g>
      </g>
    </g>
  </g>
  <g id="shape_C4V42wBDKu" data-v-5bd6ae12=""
    style="opacity: 1; transform: scale(1); transform-origin: 373.63px 330.268px;">
    <!---->
    <g mask="" data-v-5bd6ae12="">
      <g transform="translate(-281.2832813893508,-203.91320717563224) rotate(0,683.7843745207371,545.6244176133674) scale(1,1)"
        filter="" data-v-5bd6ae12="" style="opacity: 1;">
        <g data-v-5bd6ae12=""><svg xmlns="http://www.w3.org/2000/svg" version="1.1"
            xmlns:xlink="http://www.w3.org/1999/xlink" width="1367.5687490414741" height="1091.2488352267346"
            viewBox="0 0 821.5709436457387 655.5709436457387" data-ligature="true" data-parent="shape_C4V42wBDKu">
            <g data-role="text" data-width="274.2553210721583" data-height="109"
              transform="translate(273.28547182286934, 273.28547182286934)">
              <g transform="translate(0 87) ">
                <path d="M8.84 0L48.65 0L48.65-10.20L19.59-10.20L19.59-63.68L8.84-63.68Z" fill="#9e65ff"
                  stroke="#9e65ff" stroke-width="0.152" data-glyph-w="45.61358068262621" data-glyph-h="111.0509"
                  data-glyph-ascender="88.1848" data-glyph-descender="-22.8661" data-kerning="0"></path>
              </g>
              <g transform="translate(44.97591458170618 87) ">
                <path
                  d="M41.27-22.23C41.27-12.57 34.53-8.47 28.15-8.47C21.14-8.47 17.04-12.57 17.04-21.86L17.04-48.47L6.83-48.47L6.83-18.77C6.83-5.65 14.67 0.73 25.14 0.73C31.79 0.73 37.99-2.82 41.27-8.84L41.27 0L51.47 0L51.47-48.47L41.27-48.47Z"
                  fill="#9e65ff" stroke="#9e65ff" stroke-width="0.152" data-glyph-w="52.901580682626204"
                  data-glyph-h="111.0509" data-glyph-ascender="88.1848" data-glyph-descender="-22.8661"
                  data-kerning="-0.6376661009200284"></path>
              </g>
              <g transform="translate(97.87749526433238 87) ">
                <path
                  d="M15.12-48.47L2.64-48.47L18.95-24.69L1.73 0L13.67 0L24.96-16.12L36.53 0L49.10 0L31.43-24.78L48.37-48.47L36.26-48.47L25.51-32.52Z"
                  fill="#9e65ff" stroke="#9e65ff" stroke-width="0.152" data-glyph-w="44.8847806826262"
                  data-glyph-h="111.0509" data-glyph-ascender="88.1848" data-glyph-descender="-22.8661"
                  data-kerning="0"></path>
              </g>
              <g transform="translate(142.7622759469586 87) ">
                <path
                  d="M17.58 0L17.58-48.47L7.38-48.47L7.38 0ZM6.10-62.68C6.10-59.12 9.02-56.21 12.57-56.21C16.12-56.21 19.04-59.12 19.04-62.68C19.04-66.23 16.12-69.14 12.57-69.14C9.02-69.14 6.10-66.23 6.10-62.68Z"
                  fill="#9e65ff" stroke="#9e65ff" stroke-width="0.152" data-glyph-w="19.0123806826262"
                  data-glyph-h="111.0509" data-glyph-ascender="88.1848" data-glyph-descender="-22.8661"
                  data-kerning="0"></path>
              </g>
              <g transform="translate(161.7746566295848 87) ">
                <path
                  d="M52.20-48.47L42.00-48.47L42.00-41.27C38.81-45.46 33.52-49.19 26.42-49.19C13.21-49.19 4.37-38.63 4.37-26.05C4.37-12.21 13.48-2.19 26.42-2.19C33.71-2.19 39.54-6.10 42.45-11.57L42.45-5.37C42.45 6.29 35.35 10.29 27.24 10.29C22.32 10.29 16.85 8.29 12.39 4.92L7.56 12.66C13.48 17.22 20.86 19.50 27.79 19.50C40.63 19.50 52.20 12.03 52.20-6.19ZM28.15-11.48C19.13-11.48 14.39-18.68 14.39-26.05C14.39-33.43 19.13-40.99 28.15-40.99C36.35-40.99 42.00-34.25 42.00-26.05C42.00-17.86 36.35-11.48 28.15-11.48Z"
                  fill="#9e65ff" stroke="#9e65ff" stroke-width="0.152" data-glyph-w="53.630380682626196"
                  data-glyph-h="111.0509" data-glyph-ascender="88.1848" data-glyph-descender="-22.8661"
                  data-kerning="0"></path>
              </g>
              <g transform="translate(215.405037312211 87) ">
                <path
                  d="M17.58-26.24C17.58-35.89 24.32-39.99 30.70-39.99C37.72-39.99 41.81-35.89 41.81-26.60L41.81 0L52.02 0L52.02-29.70C52.02-42.82 44.18-49.19 33.71-49.19C27.06-49.19 20.86-45.64 17.58-39.63L17.58-48.47L7.38-48.47L7.38 0L17.58 0Z"
                  fill="#9e65ff" stroke="#9e65ff" stroke-width="0.152" data-glyph-w="52.901580682626204"
                  data-glyph-h="111.0509" data-glyph-ascender="88.1848" data-glyph-descender="-22.8661"
                  data-kerning="0"></path>
              </g>
            </g>
          </svg></g>
      </g>
    </g>
  </g>
</svg>